<?xml version="1.0" encoding="utf-8"?>
<!-- Generator: Adobe Illustrator 15.0.0, SVG Export Plug-In . SVG Version: 6.00 Build 0)  -->
<!DOCTYPE svg PUBLIC "-//W3C//DTD SVG 1.1//EN" "http://www.w3.org/Graphics/SVG/1.1/DTD/svg11.dtd">
<svg version="1.1" id="Layer_1" xmlns="http://www.w3.org/2000/svg" xmlns:xlink="http://www.w3.org/1999/xlink" x="0px" y="0px"
	 width="612px" height="792px" viewBox="0 0 612 792" enable-background="new 0 0 612 792" xml:space="preserve">
<title>68 all</title>
<path fill="#FFFFFF" d="M272.034,445.327c-0.309,40.559,32.32,73.688,72.879,73.997c40.559,0.309,73.688-32.32,73.997-72.879
	c0.199-26.259-13.636-50.625-36.288-63.909V148.14L503.921,258.3c2.367,2.413,6.241,2.45,8.654,0.083
	c2.413-2.367,2.45-6.242,0.083-8.655c-0.169-0.172-0.349-0.335-0.537-0.486L380.664,129.78c-2.509-2.265-6.379-2.066-8.644,0.442
	c-1.012,1.121-1.573,2.576-1.577,4.086v242.414c-37.805-14.027-79.823,5.249-93.85,43.053
	C273.56,427.952,272.016,436.605,272.034,445.327z M406.185,445.327c0,33.8-27.4,61.2-61.2,61.2s-61.2-27.4-61.2-61.2
	s27.4-61.2,61.2-61.2S406.185,411.527,406.185,445.327z"/>
<path fill="#FFFFFF" d="M99.878,148.997h190.516c3.38,0,6.12-2.74,6.12-6.12s-2.74-6.12-6.12-6.12H99.878
	c-3.38,0-6.12,2.74-6.12,6.12S96.499,148.997,99.878,148.997z"/>
<path fill="#FFFFFF" d="M99.878,232.167h190.516c3.38,0,6.12-2.74,6.12-6.12c0-3.38-2.74-6.12-6.12-6.12H99.878
	c-3.38,0-6.12,2.74-6.12,6.12C93.758,229.428,96.499,232.167,99.878,232.167z"/>
<path fill="#FFFFFF" d="M99.878,315.95h190.516c3.38,0,6.12-2.74,6.12-6.12c0-3.38-2.74-6.12-6.12-6.12H99.878
	c-3.38,0-6.12,2.74-6.12,6.12C93.758,313.21,96.499,315.95,99.878,315.95z"/>
</svg>
